<svg width="20" height="20" viewBox="0 0 20 20" fill="none" xmlns="http://www.w3.org/2000/svg">
<g id="Icon Right">
<path id="Style" fill-rule="evenodd" clip-rule="evenodd" d="M5.25081 14.7587C5.40066 14.9085 5.61712 15 5.8419 15L5.83274 14.99C6.04919 14.99 6.26565 14.8985 6.42383 14.7488L6.42466 14.7496L13.3358 7.8433L13.3358 13.3361C13.3358 13.7936 13.7021 14.168 14.1683 14.168C14.6262 14.168 15.0008 13.7936 15.0008 13.3361L15.0008 5.84862C15.0008 5.65906 14.9388 5.48603 14.8344 5.34746C14.8092 5.31298 14.781 5.28 14.7499 5.24885C14.5404 5.04005 14.2552 4.96259 13.9915 5.01668L6.67562 5.01668C6.20941 5.01668 5.8431 5.38274 5.8431 5.84862C5.8431 6.30619 6.20941 6.68056 6.67562 6.68056L12.1358 6.68056L5.24248 13.5691V13.5774C4.9178 13.9018 4.9178 14.4343 5.25081 14.7587Z" fill="white"/>
</g>
</svg>
